PathFileType	4	(X/Y/Z)	C:/Users/opensim2020/Desktop/walking_exp_matlab/subject03_walking15_straight_03.trc	
DataRate	CameraRate	NumFrames	NumMarkers	Units	OrigDataRate	OrigDataStartFrame	OrigNumFrames	
100.00	100.00	8	47	mm	100.00	1659	220	
Frame#	Time	LFHD			RFHD			LBHD			RBHD			C7			T10			CLAV			STRN			RBAK			LSHO			LUPA			LELB			LFRM			LWRA			LWRB			LFIN			RSHO			RUPA			RELB			RFRM			RWRA			RWRB			RFIN			LASI			RASI			LPSI			RPSI			LTHI			LKNE			LTIB			LANK			LHEE			LTOE			RTHI			RKNE			RTIB			RANK			RHEE			RTOE			*39			*40			*41			*42			*43			*44			*45			*46			
		X1	Y1	Z1	X2	Y2	Z2	X3	Y3	Z3	X4	Y4	Z4	X5	Y5	Z5	X6	Y6	Z6	X7	Y7	Z7	X8	Y8	Z8	X9	Y9	Z9	X10	Y10	Z10	X11	Y11	Z11	X12	Y12	Z12	X13	Y13	Z13	X14	Y14	Z14	X15	Y15	Z15	X16	Y16	Z16	X17	Y17	Z17	X18	Y18	Z18	X19	Y19	Z19	X20	Y20	Z20	X21	Y21	Z21	X22	Y22	Z22	X23	Y23	Z23	X24	Y24	Z24	X25	Y25	Z25	X26	Y26	Z26	X27	Y27	Z27	X28	Y28	Z28	X29	Y29	Z29	X30	Y30	Z30	X31	Y31	Z31	X32	Y32	Z32	X33	Y33	Z33	X34	Y34	Z34	X35	Y35	Z35	X36	Y36	Z36	X37	Y37	Z37	X38	Y38	Z38	X39	Y39	Z39	X40	Y40	Z40	X41	Y41	Z41	X42	Y42	Z42	X43	Y43	Z43	X44	Y44	Z44	X45	Y45	Z45	X46	Y46	Z46	X47	Y47	Z47	

83	0.820	1344.95374	-417.91510	1635.94360	1478.01917	-414.62790	1644.18567	1355.90552	-536.41339	1572.35339	1486.24561	-528.50500	1580.87573	1418.16833	-543.13757	1418.94617	1422.59717	-571.29480	1110.93909	1411.31384	-416.39670	1351.18152	1399.97998	-366.16858	1186.50049	1514.09143	-580.03650	1242.32727	1258.50513	-475.18948	1389.52661	1182.92334	-483.35306	1194.51721	1167.64355	-466.22910	1073.90491	1169.02307	-397.75015	965.97290	1201.28223	-324.95895	875.46368	1162.52942	-359.06873	857.94592	1169.56079	-303.07352	797.07587	1573.50574	-458.92551	1371.86951	1656.37842	-461.35449	1154.18970	1676.40771	-449.59256	1042.83191	1686.89014	-438.99957	906.26831	1657.11609	-414.86908	806.90076	1702.78406	-445.12335	806.76709	1694.86133	-429.83344	731.91394	1299.01550	-428.95129	939.44519	1530.69250	-405.49097	947.12836	1362.96509	-585.43335	963.87463	1510.26733	-567.97314	981.71204	1251.00366	-446.62970	636.41461	1269.75989	-411.31824	460.09979	1284.02063	-561.99359	333.53412	1336.01904	-710.75623	193.30814	1379.22400	-760.81702	196.25089	1350.91785	-632.61646	66.63006	1575.39673	-447.13712	649.92706	1527.37891	-425.11905	475.68915	1529.47815	-472.90405	286.19540	1477.94409	-511.61728	74.62241	1428.67175	-560.14648	43.60708	1461.53259	-372.94174	38.69116	1398.66748	-507.16983	1685.05566																					 
84	0.830	1344.92029	-405.43265	1636.56384	1477.97766	-401.96729	1644.64380	1355.97290	-523.84998	1572.84070	1486.29517	-515.75989	1581.20337	1418.39160	-530.29248	1419.32422	1423.18970	-558.22729	1111.42542	1411.15381	-403.53036	1351.73364	1400.04138	-353.29404	1187.01636	1514.64966	-566.63757	1242.89417	1258.48474	-462.92267	1389.80249	1183.06750	-472.55615	1194.62317	1167.61340	-456.13736	1073.58911	1168.27930	-391.07205	963.09955	1199.82922	-322.02509	869.26343	1160.13879	-356.31744	853.97198	1166.51196	-302.90048	790.93805	1573.40076	-445.38675	1372.43152	1656.12561	-444.36191	1154.67432	1675.82117	-430.96588	1043.47510	1686.36377	-418.32675	907.11334	1656.10034	-393.35507	808.23218	1702.33459	-422.34476	807.57593	1694.26599	-405.96585	733.17102	1299.82947	-414.81650	941.06964	1531.21765	-392.93610	947.19531	1362.48010	-572.02405	965.17419	1509.97534	-555.24103	982.03668	1251.24670	-426.51984	638.68219	1270.56519	-386.02405	463.57462	1283.93018	-532.01971	331.68066	1334.86646	-675.70410	185.48773	1378.02930	-726.36469	184.97546	1348.13184	-589.51959	64.55837	1574.94482	-438.40640	649.60187	1527.34058	-420.59927	474.75699	1529.45264	-471.07095	286.14444	1477.64258	-511.58923	74.84115	1428.33105	-560.01416	44.11292	1461.49097	-372.81729	38.59298																								 
85	0.840	1344.87988	-392.75250	1636.90857	1477.93713	-389.24719	1644.88123	1355.95325	-511.23303	1573.09814	1486.29761	-503.02182	1581.38855	1418.29285	-517.76422	1419.45557	1423.71875	-545.21143	1111.73047	1410.89246	-390.80905	1351.91980	1400.13440	-340.49243	1187.19019	1515.37854	-553.65833	1243.50720	1258.43420	-450.51257	1389.81250	1183.24573	-461.76593	1194.47412	1167.60498	-446.32141	1073.26807	1167.67737	-384.66486	960.29913	1198.54248	-319.66489	863.07208	1157.86182	-353.95868	850.09814	1163.61157	-303.24490	784.99951	1573.26355	-431.92877	1372.82654	1655.85461	-427.55170	1155.12854	1675.31226	-412.52792	1044.06287	1685.77490	-397.63660	907.95721	1654.88330	-371.77133	809.23297	1701.71790	-399.79013	808.42578	1693.57483	-381.99829	734.43341	1300.65137	-400.82468	942.56409	1531.89001	-380.56555	947.10559	1361.80347	-558.56158	966.12280	1509.59412	-542.58759	982.20886	1251.56580	-406.94885	640.83319	1271.72046	-361.19815	466.96185	1283.96838	-502.05939	329.32635	1333.87354	-639.52728	176.69273	1376.98914	-690.60193	172.70544	1345.21362	-545.54346	62.28432	1574.35742	-429.59097	649.08838	1527.38806	-415.88620	473.84641	1529.31128	-468.78510	286.00510	1477.35449	-511.55002	75.11493	1427.92737	-559.81128	44.57866	1461.40442	-372.68488	38.46211	1401.19373	-484.41949	1686.54663																					 
86	0.850	1344.70203	-380.19522	1636.87634	1477.81262	-376.45636	1644.86536	1355.93274	-498.48367	1573.10034	1486.29016	-490.22946	1581.35547	1418.45203	-504.64108	1419.35571	1424.07104	-532.14502	1111.78625	1410.75269	-377.81509	1351.97168	1400.29456	-327.54840	1187.19641	1515.96777	-540.29474	1243.84802	1258.33521	-437.86319	1389.62427	1183.38391	-450.30719	1194.27356	1167.66772	-436.28833	1072.62317	1167.09229	-378.39941	957.39099	1197.25623	-317.68317	857.05688	1155.59460	-351.92566	846.39587	1160.76965	-304.02435	779.20441	1573.17505	-418.38959	1373.02966	1655.62134	-410.91516	1155.44861	1674.89490	-394.25290	1044.62134	1685.19958	-376.97391	908.79565	1653.84351	-349.78955	810.58875	1701.02759	-377.09930	809.29883	1692.84070	-357.81348	735.72845	1301.28662	-386.97687	943.48663	1532.57166	-368.35846	946.77704	1361.17456	-545.10956	966.91205	1509.25879	-529.91815	982.07959	1251.92810	-387.59613	642.90692	1272.62561	-337.33603	470.60349	1284.10596	-472.19519	326.60403	1333.01099	-602.28906	166.98897	1376.12549	-653.30511	159.60085	1343.07239	-501.55804	59.08258	1573.61890	-420.90311	648.75055	1527.30469	-411.00244	472.97318	1529.14075	-466.02704	285.95886	1477.16956	-511.35843	75.48451	1427.98779	-559.86072	45.53967	1461.30664	-372.55457	38.34053	1398.75732	-469.09064	1685.26465																					 
87	0.860	1344.58728	-367.41187	1636.71301	1477.51965	-363.66412	1644.68713	1355.89795	-485.81622	1572.83740	1486.22656	-477.38730	1581.15771	1418.34668	-491.96616	1419.00488	1424.32239	-519.27771	1111.71191	1410.57056	-364.98929	1351.69946	1400.50891	-314.69122	1186.93384	1516.58655	-527.01392	1244.03210	1258.32288	-425.05270	1389.17749	1183.54565	-438.86343	1193.79224	1167.62097	-426.35632	1071.85486	1166.56250	-372.39447	954.49561	1195.97986	-316.13617	851.04761	1153.46851	-350.07806	842.79333	1158.09485	-305.20209	773.54126	1573.02576	-405.00171	1373.08826	1655.35876	-394.55157	1155.69092	1674.57837	-376.31308	1045.10974	1684.57080	-356.43958	909.62299	1652.72229	-327.78091	812.03284	1700.26477	-354.43961	810.16919	1691.96252	-333.66266	737.15283	1302.00696	-372.96381	944.23401	1533.28027	-356.19952	946.23383	1360.49475	-531.77014	967.31543	1508.71326	-517.31421	981.77570	1252.17249	-368.70004	644.82922	1273.86877	-314.17087	473.93610	1284.32715	-442.45972	323.48370	1332.28674	-563.98376	156.83670	1375.26746	-615.07520	146.44237	1340.94910	-456.91498	55.64697	1573.02600	-412.46194	648.19727	1527.36060	-405.94922	472.13196	1528.98206	-463.26212	285.85468	1476.89587	-511.15369	75.89076	1427.65088	-559.64435	46.21724	1461.26123	-372.41507	38.28260	1400.76038	-458.84863	1686.20923																					 
88	0.870	1344.24585	-354.87711	1636.21240	1477.30518	-350.92465	1644.37305	1355.81262	-473.09534	1572.24451	1486.11646	-464.55341	1580.69531	1418.44641	-478.63864	1418.51697	1424.43665	-506.45355	1111.33362	1410.46558	-351.94751	1351.22522	1400.64221	-301.80270	1186.29102	1517.11560	-513.75073	1243.90796	1258.30261	-412.06976	1388.50049	1183.70435	-427.21555	1193.07800	1167.71350	-416.44504	1070.72485	1165.88770	-366.51511	951.52032	1194.72278	-314.83188	845.19330	1151.36523	-348.44891	839.27032	1155.54517	-306.69788	767.96613	1572.85657	-391.49304	1372.86633	1655.15588	-378.58310	1155.72388	1674.27966	-358.60974	1045.47424	1684.00598	-336.02084	910.39240	1651.55579	-305.79559	813.15460	1699.40186	-331.81244	811.09174	1690.99438	-309.46368	738.65460	1302.61560	-359.09644	944.57373	1533.82031	-344.27130	945.45038	1359.70044	-518.21405	967.31171	1508.10608	-504.91498	981.25360	1252.29675	-350.11111	646.48230	1275.06580	-291.88266	476.89798	1284.55115	-412.90421	319.95917	1331.55103	-524.89697	146.18443	1374.59485	-575.29102	132.35329	1338.96997	-411.59039	52.33470	1572.33557	-404.08551	647.58984	1527.47168	-400.88965	471.23111	1528.81763	-460.53751	285.84650	1476.59692	-510.95544	76.42241	1427.56580	-559.28033	47.06241	1461.16101	-372.24570	38.16670																								 
89	0.880	1344.02124	-342.04443	1635.54822	1477.00525	-338.13086	1643.75830	1355.75208	-460.29056	1571.40222	1485.99280	-451.68842	1580.02441	1418.29675	-465.75827	1417.73694	1424.36511	-493.37433	1110.72485	1410.44751	-338.85345	1350.47644	1400.85608	-288.83078	1185.43127	1517.69141	-500.44269	1243.45313	1258.30957	-399.01810	1387.59363	1183.89551	-415.37173	1191.99268	1167.84546	-407.19598	1069.51172	1165.24170	-360.84924	948.43152	1193.41455	-313.73959	839.45441	1149.36792	-346.85129	835.80859	1153.11243	-308.47668	762.58691	1572.69824	-378.09824	1372.45923	1655.06763	-362.85541	1155.64246	1674.15051	-341.24945	1045.69800	1683.49255	-315.78070	911.11230	1650.68591	-283.27811	814.99670	1698.56750	-309.27411	811.93701	1689.85706	-285.19211	740.10114	1303.02869	-345.08701	944.43665	1534.67029	-331.86526	944.62384	1358.83618	-504.70538	966.83655	1507.36658	-492.66592	980.57965	1252.40991	-331.89517	647.95721	1276.21289	-270.18954	479.47998	1284.65747	-383.40527	315.99744	1330.53284	-484.40628	135.24196	1373.73218	-533.78381	117.79845	1337.35828	-365.36731	49.41071	1571.69897	-395.65344	647.00275	1527.65649	-395.75882	470.32132	1528.64661	-457.77957	285.92383	1476.34265	-510.67496	77.01569	1427.12366	-558.86121	47.86597	1461.17493	-372.09140	38.17789	1398.16235	-431.00006	1683.80920																					 
90	0.890	1343.71472	-329.36868	1634.58752	1476.67871	-325.29745	1643.02649	1355.56165	-447.36444	1570.31592	1485.85217	-438.73975	1579.11841	1418.47644	-452.30606	1416.90942	1424.21716	-480.36462	1109.92700	1410.33472	-325.72006	1349.47241	1401.07080	-275.90149	1184.21667	1518.07520	-487.15097	1242.75293	1258.23926	-385.66843	1386.37012	1184.11169	-403.52994	1190.85461	1167.87097	-397.02814	1068.15393	1164.59558	-355.16724	945.31384	1192.11914	-312.76065	834.00677	1147.33997	-345.40677	832.47009	1150.83069	-310.53183	757.33258	1572.59436	-364.76093	1371.81824	1655.09241	-347.47638	1155.35583	1674.18604	-324.24301	1045.77454	1683.02966	-295.72610	911.79504	1649.55078	-261.13043	816.40265	1697.56287	-286.72827	812.72778	1688.82288	-260.94669	741.69165	1303.23975	-331.17206	943.83557	1535.24268	-319.78293	943.48041	1357.97827	-491.32339	966.05267	1506.57751	-480.21432	979.62976	1252.41565	-314.09732	648.99823	1277.35522	-249.75296	481.70221	1284.71045	-353.88385	311.76367	1329.67468	-443.19681	124.56608	1372.76709	-491.12842	103.46066	1336.13489	-318.48001	47.09889	1571.06848	-386.90964	646.31097	1527.90417	-390.43567	469.47610	1528.45044	-454.98917	286.06113	1476.01929	-510.30945	77.71911	1426.68372	-558.52728	48.96969	1461.20142	-371.89267	38.26845																								 
